<svg width="24" height="26" viewBox="0 0 24 26" fill="none" xmlns="http://www.w3.org/2000/svg">
<path d="M7.99967 19.6667V21C7.99967 21.5253 8.10314 22.0454 8.30416 22.5307C8.50517 23.016 8.79981 23.457 9.17125 23.8284C9.54268 24.1999 9.98364 24.4945 10.4689 24.6955C10.9542 24.8965 11.4744 25 11.9997 25C12.525 25 13.0451 24.8965 13.5304 24.6955C14.0157 24.4945 14.4567 24.1999 14.8281 23.8284C15.1995 23.457 15.4942 23.016 15.6952 22.5307C15.8962 22.0454 15.9997 21.5253 15.9997 21V19.6667M19.9997 9C19.9997 13 22.6663 19.6667 22.6663 19.6667H1.33301C1.33301 19.6667 3.99967 14.3333 3.99967 9C3.99967 4.64266 7.64234 1 11.9997 1C16.357 1 19.9997 4.64267 19.9997 9Z" stroke="#424242" stroke-width="2" stroke-linecap="round" stroke-linejoin="round"/>
</svg>
