<svg width="15" height="15" viewBox="0 0 15 15" fill="none" xmlns="http://www.w3.org/2000/svg">
<path d="M10 9.50001V10.5547L10.5625 11.1875M5.625 6.875H2.5M12.5 5.625V4.375C12.5 3.68464 11.9404 3.125 11.25 3.125H3.75C3.05964 3.125 2.5 3.68464 2.5 4.375V11.875C2.5 12.5654 3.05964 13.125 3.75 13.125H5.625M9.375 1.875V4.375M5.625 1.875V4.375M12.8125 10.625C12.8125 12.1783 11.5533 13.4375 10 13.4375C8.4467 13.4375 7.1875 12.1783 7.1875 10.625C7.1875 9.0717 8.4467 7.8125 10 7.8125C11.5533 7.8125 12.8125 9.0717 12.8125 10.625Z" stroke="#424242" stroke-width="1.5" stroke-linecap="round" stroke-linejoin="round"/>
</svg>
