<svg width="23" height="24" viewBox="0 0 23 24" fill="none" xmlns="http://www.w3.org/2000/svg">
<path d="M18.5 19.5368C18.5 17.6471 17.133 15.2104 15 15.2104H8C5.867 15.2104 4.5 17.6471 4.5 19.5368M1 11.7104C1 5.91146 5.70101 1.21045 11.5 1.21045C17.299 1.21045 22 5.91146 22 11.7104C22 17.5094 17.299 22.2104 11.5 22.2104C5.70101 22.2104 1 17.5094 1 11.7104ZM15 8.21045C15 10.1434 13.433 11.7104 11.5 11.7104C9.567 11.7104 8 10.1434 8 8.21045C8 6.27745 9.567 4.71045 11.5 4.71045C13.433 4.71045 15 6.27745 15 8.21045Z" stroke="#424242" stroke-width="2"/>
</svg>
